# Blender 5.0.1
# www.blender.org
mtllib asteroid1.mtl
o Icosphere
v -0.000000 -1.000234 0.000000
v 0.736267 -0.455043 0.534923
v -0.251262 -0.406564 0.773318
v -0.841490 -0.420748 0.000000
v -0.259952 -0.420625 -0.800064
v 0.620413 -0.383441 -0.450751
v 0.262920 0.425427 0.809198
v -0.772900 0.477684 0.561538
v -0.726688 0.449124 -0.527964
v 0.234537 0.379502 -0.721844
v 0.867332 0.433668 0.000000
v -0.000000 0.930129 -0.000000
v -0.188811 -0.530714 0.581111
v -0.134618 -0.704893 0.414320
v -0.069516 -0.871009 0.213951
v 0.190310 -0.909046 0.138267
v 0.423836 -0.847681 0.307931
v 0.636714 -0.687417 0.462594
v 0.528829 -0.499307 0.677630
v 0.253758 -0.507516 0.780971
v -0.027210 -0.440621 0.758459
v 0.766745 -0.473881 -0.279120
v 0.946294 -0.584849 -0.000000
v 0.891733 -0.551128 0.322929
v 0.197524 -0.942059 -0.143508
v 0.441734 -0.883476 -0.320935
v 0.608685 -0.656571 -0.442231
v -0.656511 -0.571214 -0.000000
v -0.499237 -0.807786 -0.000000
v -0.232950 -0.900578 -0.000000
v -0.420558 -0.437305 0.624928
v -0.655666 -0.500891 0.476368
v -0.785911 -0.474814 0.225325
v -0.204712 -0.576530 -0.630051
v -0.159983 -0.837708 -0.492386
v -0.073897 -0.923505 -0.227436
v -0.644650 -0.388804 -0.182989
v -0.552352 -0.421965 -0.401306
v -0.419023 -0.435731 -0.622709
v -0.027703 -0.453127 -0.779894
v 0.257371 -0.514742 -0.792092
v 0.504183 -0.475596 -0.645297
v 0.900817 0.236987 0.138688
v 0.924687 -0.000000 0.300444
v 0.912269 -0.265643 0.469031
v 0.740739 -0.217442 -0.381976
v 0.903708 0.000000 -0.293628
v 0.878833 0.231408 -0.135171
v 0.161091 0.260659 0.992907
v -0.000000 -0.000000 0.920529
v -0.142392 -0.230402 0.873617
v 0.709656 -0.259137 0.704285
v 0.646584 0.000000 0.889945
v 0.477860 0.274181 0.946007
v -1.029102 0.298473 0.528326
v -1.105332 -0.000000 0.359139
v -0.982754 -0.257780 0.151799
v -0.389774 -0.225713 0.773806
v -0.581247 0.000000 0.800017
v -0.722578 0.263724 0.717247
v -0.681771 0.249240 -0.676311
v -0.540068 -0.000000 -0.743339
v -0.367502 -0.213458 -0.730265
v -0.811146 -0.214232 -0.124340
v -0.804936 0.000000 -0.261535
v -0.846072 0.247041 -0.435435
v 0.396083 0.229184 -0.786139
v 0.535186 -0.000000 -0.736620
v 0.610967 -0.224109 -0.605282
v -0.144248 -0.233406 -0.885459
v -0.000000 0.000000 -0.901450
v 0.126096 0.204034 -0.769657
v 0.742496 0.448380 0.212313
v 0.630280 0.481497 0.457924
v 0.434396 0.451488 0.644924
v 0.025910 0.407594 0.701848
v -0.231661 0.463323 0.712967
v -0.500638 0.472185 0.640646
v -0.976178 0.603319 0.352528
v -0.966326 0.597230 -0.000000
v -0.833373 0.515059 -0.302474
v -0.476138 0.448613 -0.608505
v -0.232927 0.465854 -0.716861
v 0.025361 0.393670 -0.677981
v 0.421377 0.438144 -0.626111
v 0.597799 0.456683 -0.434324
v 0.844730 0.510628 -0.242953
v 0.066487 0.834725 0.204631
v 0.154164 0.807239 0.474477
v 0.223821 0.631587 0.688862
v 0.767209 0.669772 0.000000
v 0.563452 0.911688 -0.000000
v 0.258745 0.996080 -0.000000
v -0.171571 0.823287 0.124652
v -0.421921 0.843851 0.306540
v -0.618039 0.666864 0.449026
v -0.177827 0.851918 -0.129197
v -0.345611 0.691229 -0.251098
v -0.545396 0.586920 -0.396249
v 0.076606 0.955966 -0.235774
v 0.168933 0.884570 -0.519930
v 0.217109 0.612248 -0.668205
v 0.389170 0.960617 -0.282748
v 0.699049 0.793694 -0.288634
v 0.456036 0.737894 -0.535900
v -0.134664 0.872059 -0.414444
v -0.046789 0.649878 -0.618915
v -0.342237 0.683382 -0.555278
v -0.365917 0.735386 0.000000
v -0.638615 0.688556 -0.154994
v -0.761482 0.822309 0.183471
v -0.122571 0.795497 0.377227
v -0.323437 0.644727 0.524051
v -0.047338 0.656628 0.625257
v 0.325214 0.805953 0.236281
v 0.398681 0.645091 0.469806
v 0.620071 0.702739 0.255190
v 0.726993 0.233659 -0.357415
v 0.689370 -0.001312 -0.500852
v 0.542991 0.224977 -0.559174
v -0.109146 0.222236 -0.761978
v -0.293713 -0.000440 -0.903956
v -0.457556 0.282789 -0.870715
v -0.992699 0.289444 -0.169877
v -1.066614 0.000592 0.000000
v -1.101011 0.320516 0.187546
v -0.443734 0.274245 0.843893
v -0.281102 -0.000802 0.865143
v -0.124940 0.251678 0.864760
v 0.614579 0.253773 0.631427
v 0.805844 -0.000037 0.585477
v 0.836316 0.268314 0.412484
v 0.285602 0.000672 -0.878993
v 0.452979 -0.279960 -0.861831
v 0.145109 -0.289279 -0.996026
v -0.767278 0.000458 -0.557457
v -0.536933 -0.222540 -0.553062
v -0.682404 -0.219524 -0.334957
v -0.914586 -0.001158 0.664482
v -0.993599 -0.318178 0.491712
v -0.726890 -0.298953 0.744782
v 0.353329 -0.001272 1.087433
v 0.132280 -0.265363 0.912532
v 0.472429 -0.291980 0.899571
v 0.933304 0.000592 0.000000
v 1.049053 -0.305610 0.179070
v 0.944398 -0.275589 -0.161998
v 0.317380 -0.632272 -0.513990
v 0.139136 -0.900376 -0.428212
v 0.049799 -0.686871 -0.653671
v -0.408005 -0.660175 -0.480548
v -0.352125 -0.871028 -0.255832
v -0.545429 -0.616777 -0.223581
v -0.564481 -0.638717 0.231649
v -0.303093 -0.752455 0.220210
v -0.310472 -0.502360 0.368154
v 0.703835 -0.759554 -0.170109
v 0.738249 -0.797015 0.178087
v 0.443647 -0.887456 0.000001
v 0.047304 -0.656197 0.624853
v 0.123833 -0.803478 0.381108
v 0.346325 -0.691782 0.562066
vn 0.0278 -0.8516 0.5234
vn 0.6030 -0.4610 0.6511
vn -0.3617 -0.8454 0.3931
vn -0.3869 -0.9045 -0.1794
vn 0.0377 -0.9431 -0.3304
vn 0.6546 -0.3812 0.6528
vn -0.0161 -0.4872 0.8732
vn -0.7445 -0.6672 0.0235
vn -0.7290 -0.1538 -0.6670
vn 0.8735 -0.3113 -0.3744
vn 0.6803 -0.4243 0.5976
vn -0.3637 -0.2809 0.8882
vn -0.8165 -0.2050 -0.5397
vn -0.5719 -0.0206 -0.8201
vn 0.8003 -0.3923 -0.4534
vn 0.5611 0.4941 0.6641
vn -0.2074 0.6199 0.7568
vn -0.3442 0.8447 -0.4099
vn -0.1873 0.2073 -0.9602
vn 0.9200 0.3901 0.0380
vn -0.2469 0.9687 0.0259
vn 0.2669 0.9637 0.0022
vn 0.7614 0.6413 0.0955
vn -0.0359 0.9894 -0.1406
vn -0.0534 0.9642 -0.2596
vn 0.4677 0.8732 -0.1372
vn 0.3884 0.7403 -0.5487
vn 0.3503 0.7472 -0.5648
vn 0.2064 0.4958 -0.8436
vn 0.8900 0.4557 -0.0145
vn 0.5802 0.1700 -0.7965
vn 0.6989 0.0964 -0.7087
vn 0.7248 0.1203 -0.6784
vn 0.3780 0.2265 -0.8977
vn 0.3840 0.2346 -0.8931
vn -0.3873 0.9216 -0.0248
vn -0.1375 0.9492 -0.2832
vn -0.0987 0.4623 -0.8812
vn -0.3754 0.9268 0.0086
vn -0.6718 0.7390 -0.0495
vn -0.2877 0.5844 -0.7587
vn -0.0872 0.6557 -0.7500
vn -0.6624 0.7487 -0.0267
vn -0.4466 0.8943 -0.0280
vn -0.1557 0.1801 -0.9713
vn 0.2183 0.2772 -0.9357
vn -0.1146 0.5546 -0.8242
vn -0.3951 0.4115 -0.8213
vn -0.6678 0.5049 -0.5469
vn -0.1842 0.7949 -0.5781
vn -0.4663 0.8777 0.1105
vn -0.6063 0.7734 -0.1850
vn -0.1500 0.8891 -0.4325
vn -0.4675 0.8771 0.1104
vn -0.1846 0.9154 -0.3576
vn -0.0674 0.9817 -0.1781
vn 0.0410 0.9342 -0.3543
vn 0.0574 0.9444 -0.3237
vn -0.2620 0.7645 0.5890
vn -0.3557 0.8041 -0.4762
vn -0.4181 0.8133 -0.4047
vn -0.4343 0.7727 -0.4630
vn -0.7260 0.6869 -0.0322
vn -0.2932 0.7476 0.5960
vn -0.3026 0.6579 0.6897
vn -0.1981 0.8622 0.4663
vn 0.1402 0.9868 0.0814
vn -0.1255 0.7028 0.7002
vn -0.0898 0.9879 0.1261
vn -0.0872 0.9878 0.1290
vn -0.0445 0.7268 0.6855
vn -0.2286 0.8182 0.5275
vn -0.2199 0.8213 0.5265
vn -0.0819 0.7577 0.6474
vn -0.1414 0.6498 0.7468
vn -0.1728 0.6672 0.7246
vn -0.2949 0.6136 0.7325
vn 0.1102 0.3216 0.9404
vn -0.2016 0.2333 0.9513
vn -0.4025 0.4033 0.8218
vn -0.2180 0.8555 0.4697
vn 0.1021 0.9925 0.0679
vn 0.5007 0.7422 0.4454
vn 0.0103 0.7805 0.6251
vn 0.2186 0.7894 0.5737
vn 0.5187 0.7716 0.3683
vn 0.2596 0.8315 0.4911
vn 0.2345 0.7770 0.5842
vn 0.7201 0.6066 0.3369
vn 0.6135 0.5890 0.5260
vn 0.4800 0.6356 0.6047
vn 0.4639 0.6101 0.6424
vn 0.8665 0.3584 0.3475
vn 0.8360 0.3283 0.4396
vn 0.8187 0.3472 0.4573
vn 0.9933 0.0976 -0.0615
vn 0.7484 0.4276 -0.5070
vn 0.6781 -0.2238 -0.7000
vn 0.8195 -0.1165 -0.5611
vn 0.6008 0.0735 -0.7960
vn 0.6594 0.3120 -0.6840
vn 0.7019 0.2859 -0.6524
vn 0.7216 0.1883 -0.6662
vn 0.7124 0.1948 -0.6742
vn 0.8634 -0.0696 -0.4997
vn 0.8362 -0.0378 -0.5471
vn 0.7776 0.3725 -0.5065
vn 0.7838 0.3676 -0.5005
vn 0.8041 0.2970 -0.5150
vn 0.2225 0.5757 -0.7868
vn -0.1688 0.3549 -0.9195
vn 0.0140 0.5364 -0.8438
vn 0.0086 -0.0737 -0.9972
vn 0.0045 0.4372 -0.8994
vn 0.2200 0.2846 -0.9331
vn 0.0064 0.5338 -0.8456
vn 0.3311 0.2967 -0.8957
vn 0.3332 0.3327 -0.8822
vn -0.2910 0.7991 -0.5260
vn -0.5454 -0.4080 -0.7321
vn -0.4904 -0.4424 -0.7509
vn -0.5339 -0.2128 -0.8183
vn -0.6336 -0.1564 -0.7577
vn -0.5229 0.7032 -0.4818
vn -0.2570 0.5381 -0.8028
vn -0.8353 0.2756 -0.4758
vn -0.8241 -0.4113 -0.3894
vn -0.6494 -0.3967 -0.6488
vn -0.8189 0.2857 -0.4978
vn -0.8317 0.3212 -0.4528
vn -0.6884 -0.2286 -0.6883
vn -0.9529 0.0704 -0.2949
vn -0.9218 0.2449 -0.3006
vn -0.9072 0.4195 -0.0326
vn -0.6856 -0.5211 -0.5083
vn -0.9275 -0.3601 -0.1006
vn -0.9933 -0.0440 -0.1072
vn -0.9689 0.1269 0.2126
vn -0.9336 0.2864 0.2155
vn -0.4481 0.5037 0.7386
vn -0.2251 0.5381 0.8122
vn -0.4147 0.0627 0.9078
vn -0.2042 -0.2820 0.9374
vn -0.3428 0.6232 0.7029
vn -0.1688 0.6821 0.7115
vn -0.2119 -0.0499 0.9760
vn -0.0624 0.0401 0.9972
vn -0.0124 0.5786 0.8155
vn 0.1689 0.6293 0.7586
vn -0.3704 -0.1902 0.9092
vn -0.1925 -0.0802 0.9780
vn -0.1922 0.1204 0.9739
vn -0.4088 -0.0007 0.9126
vn -0.2624 0.8069 0.5292
vn -0.3028 0.7868 0.5378
vn 0.3040 0.8395 0.4505
vn 0.8320 0.4439 0.3328
vn 0.8801 -0.1156 0.4604
vn 0.7205 0.6380 0.2717
vn 0.5694 0.4730 0.6724
vn 0.7652 0.5042 0.4002
vn 0.6428 0.3622 0.6750
vn 0.6114 0.4525 0.6492
vn 0.7229 0.6468 0.2431
vn 0.7578 0.0177 0.6522
vn 0.9049 0.1972 0.3773
vn 0.9136 0.1418 0.3810
vn 0.9526 0.2311 0.1980
vn 0.8147 0.5658 0.1272
vn 0.7874 0.4391 0.4326
vn -0.0868 0.3115 -0.9463
vn 0.4926 0.1125 -0.8630
vn 0.8530 -0.0172 -0.5216
vn -0.0938 0.4134 -0.9057
vn 0.0661 0.5122 -0.8563
vn 0.4820 0.2359 -0.8438
vn 0.3888 0.1766 -0.9042
vn 0.0728 0.3427 -0.9366
vn -0.3298 0.1398 -0.9337
vn 0.8426 -0.2851 -0.4568
vn 0.4793 -0.5918 -0.6481
vn 0.3535 -0.5246 -0.7745
vn -0.1822 -0.7079 -0.6824
vn -0.3880 -0.5582 -0.7334
vn 0.0192 -0.4247 -0.9051
vn -0.8058 0.2253 -0.5476
vn -0.6262 -0.1503 -0.7650
vn -0.6022 -0.5237 -0.6026
vn -0.8261 0.0148 -0.5633
vn -0.9614 -0.2465 -0.1227
vn -0.5267 -0.5567 -0.6424
vn -0.6300 -0.6589 -0.4111
vn -0.8832 -0.4552 -0.1131
vn -0.8192 -0.2922 -0.4934
vn -0.7082 -0.1677 -0.6858
vn -0.8253 -0.3002 -0.4783
vn -0.7861 -0.3347 -0.5197
vn -0.8457 -0.4484 -0.2894
vn -0.7216 -0.5446 -0.4274
vn -0.6097 -0.3412 -0.7154
vn -0.4258 0.4648 0.7763
vn -0.8453 -0.0833 0.5277
vn -0.9264 -0.3646 -0.0943
vn -0.4988 0.1933 0.8449
vn -0.3754 0.0884 0.9226
vn -0.8457 -0.0770 0.5280
vn -0.6622 -0.2246 0.7149
vn -0.3767 0.0124 0.9263
vn -0.0507 -0.1575 0.9862
vn -0.7078 -0.6912 -0.1454
vn -0.4649 -0.8725 0.1506
vn -0.4000 -0.7802 0.4809
vn -0.1419 -0.8087 0.5708
vn 0.0560 -0.5800 0.8127
vn -0.5519 -0.4247 0.7177
vn 0.0709 0.7227 0.6875
vn -0.4270 0.0129 0.9041
vn -0.1527 -0.1057 0.9826
vn 0.1163 0.4115 0.9039
vn 0.5498 0.1712 0.8176
vn -0.4160 -0.2338 0.8788
vn -0.0108 -0.5458 0.8378
vn 0.5349 -0.2929 0.7925
vn 0.6239 -0.3491 0.6992
vn -0.1853 -0.5483 0.8155
vn -0.1945 -0.5418 0.8177
vn -0.0040 -0.4789 0.8778
vn 0.2800 -0.6650 0.6924
vn 0.5872 -0.5117 0.6272
vn 0.5615 -0.4962 0.6622
vn 0.9905 0.1110 -0.0818
vn 0.9924 0.1195 0.0287
vn 0.8954 0.2080 0.3937
vn 0.9797 0.1830 -0.0824
vn 0.9799 0.1732 -0.0991
vn 0.9296 0.3674 0.0274
vn 0.9420 0.1972 -0.2717
vn 0.9901 0.0984 -0.1000
vn 0.6830 -0.2302 -0.6932
vn 0.8506 -0.2868 0.4408
vn 0.8737 -0.4460 0.1942
vn 0.9410 -0.1525 -0.3022
vn 0.7393 -0.3089 -0.5984
vn 0.6897 -0.2082 -0.6935
vn 0.6868 -0.2095 -0.6960
vn 0.8681 -0.0527 -0.4937
vn 0.1557 -0.5523 -0.8190
vn 0.1138 -0.9794 -0.1667
vn 0.1111 -0.7128 -0.6925
vn 0.3845 -0.8176 -0.4285
vn 0.3176 -0.4739 -0.8213
vn 0.4737 -0.5380 -0.6972
vn 0.3900 -0.8150 -0.4286
vn -0.1459 -0.5071 -0.8494
vn -0.0244 -0.9899 -0.1399
vn -0.1436 -0.9542 -0.2623
vn -0.0050 -0.7271 -0.6865
vn -0.2868 -0.4847 -0.8263
vn -0.3028 -0.5286 -0.7930
vn -0.0461 -0.7437 -0.6670
vn -0.4878 -0.7165 -0.4986
vn -0.3821 -0.4813 -0.7889
vn -0.1534 -0.9536 -0.2590
vn -0.3626 -0.5113 -0.7791
vn -0.8154 -0.3378 -0.4701
vn -0.5151 -0.6853 -0.5149
vn -0.7731 -0.5470 -0.3211
vn -0.8405 -0.3812 -0.3851
vn -0.8869 -0.3281 -0.3251
vn -0.1825 -0.9828 -0.0285
vn -0.3287 -0.9434 0.0442
vn -0.7754 -0.5502 -0.3099
vn -0.7974 -0.5301 -0.2882
vn -0.8741 -0.3145 -0.3702
vn -0.4893 -0.6016 -0.6314
vn -0.6307 -0.7754 -0.0305
vn -0.8211 -0.5458 0.1671
vn -0.2907 -0.8342 0.4685
vn -0.5950 -0.8037 0.0022
vn -0.5842 -0.7807 0.2220
vn -0.3285 -0.8046 0.4947
vn -0.1826 -0.5046 0.8438
vn 0.1624 -0.8326 0.5295
vn 0.0831 -0.9570 0.2781
vn -0.4019 -0.8140 0.4195
vn -0.3768 -0.7696 0.5156
vn -0.6388 -0.4056 0.6538
vn -0.7453 -0.5673 0.3503
vn -0.3593 -0.9297 0.0815
vn -0.2538 -0.8480 0.4653
vn 0.7460 -0.0527 -0.6638
vn 0.6995 -0.3840 -0.6027
vn 0.7769 -0.5991 0.1938
vn 0.8371 -0.3460 -0.4237
vn 0.5814 -0.6725 -0.4578
vn 0.6432 -0.7520 -0.1445
vn 0.3645 -0.9213 -0.1352
vn 0.4339 -0.9009 -0.0138
vn 0.2240 -0.9745 -0.0134
vn 0.6017 -0.6495 0.4649
vn 0.3162 -0.8419 0.4372
vn 0.2131 -0.9671 0.1386
vn 0.1578 -0.9780 0.1365
vn 0.1485 -0.9817 0.1188
vn 0.3583 -0.9262 0.1177
vn -0.0948 -0.8500 0.5182
vn -0.4670 -0.6830 0.5615
vn -0.2251 -0.7848 0.5775
vn -0.4351 -0.5782 0.6902
vn -0.1987 -0.5650 0.8008
vn -0.2720 -0.8590 0.4337
vn 0.0072 -0.8549 0.5188
vn 0.0478 -0.7541 0.6550
vn 0.2773 -0.6740 0.6847
vn -0.0197 -0.9189 0.3941
vn -0.0407 -0.9204 0.3889
vn 0.0021 -0.8521 0.5234
vn 0.2026 -0.8059 0.5562
vn 0.2517 -0.6623 0.7057
vn 0.5683 -0.4565 0.6845
vt 0.181819 0.000000
vt 0.204546 0.039365
vt 0.159092 0.039365
vt 0.272728 0.157461
vt 0.295455 0.118096
vt 0.318182 0.157461
vt 0.909091 0.000000
vt 0.931818 0.039365
vt 0.886364 0.039365
vt 0.727273 0.000000
vt 0.750000 0.039365
vt 0.704546 0.039365
vt 0.545455 0.000000
vt 0.568182 0.039365
vt 0.522728 0.039365
vt 0.295455 0.196826
vt 0.090910 0.157461
vt 0.136364 0.157461
vt 0.113637 0.196826
vt 0.818182 0.157461
vt 0.863636 0.157461
vt 0.840909 0.196826
vt 0.636364 0.157461
vt 0.681818 0.157461
vt 0.659091 0.196826
vt 0.454546 0.157461
vt 0.500000 0.157461
vt 0.477273 0.196826
vt 0.250001 0.196826
vt 0.068182 0.196826
vt 0.795455 0.196826
vt 0.613637 0.196826
vt 0.431819 0.196826
vt 0.181819 0.314921
vt 0.227273 0.314921
vt 0.204546 0.354286
vt 0.000000 0.314921
vt 0.045455 0.314921
vt 0.022727 0.354286
vt 0.727273 0.314921
vt 0.772727 0.314921
vt 0.750000 0.354286
vt 0.545455 0.314921
vt 0.590909 0.314921
vt 0.568182 0.354286
vt 0.363637 0.314921
vt 0.409091 0.314921
vt 0.386364 0.354286
vt 0.431819 0.433017
vt 0.477273 0.433017
vt 0.454546 0.472382
vt 0.409091 0.393651
vt 0.454546 0.393651
vt 0.431819 0.354286
vt 0.500000 0.393651
vt 0.477273 0.354286
vt 0.522728 0.354286
vt 0.454546 0.314921
vt 0.500000 0.314921
vt 0.613637 0.433017
vt 0.659091 0.433017
vt 0.636364 0.472382
vt 0.590909 0.393651
vt 0.636364 0.393651
vt 0.613637 0.354286
vt 0.681818 0.393651
vt 0.659091 0.354286
vt 0.704546 0.354286
vt 0.636364 0.314921
vt 0.681818 0.314921
vt 0.795455 0.433017
vt 0.840909 0.433017
vt 0.818182 0.472382
vt 0.772727 0.393651
vt 0.818182 0.393651
vt 0.795455 0.354286
vt 0.863636 0.393651
vt 0.840909 0.354286
vt 0.886364 0.354286
vt 0.818182 0.314921
vt 0.863636 0.314921
vt 0.909091 0.314921
vt 0.068182 0.433017
vt 0.113637 0.433017
vt 0.090910 0.472382
vt 0.045455 0.393651
vt 0.090910 0.393651
vt 0.068182 0.354286
vt 0.136365 0.393651
vt 0.113637 0.354286
vt 0.159092 0.354286
vt 0.090909 0.314921
vt 0.136364 0.314921
vt 0.250001 0.433017
vt 0.295455 0.433017
vt 0.272728 0.472382
vt 0.227273 0.393651
vt 0.272728 0.393651
vt 0.250001 0.354286
vt 0.318182 0.393651
vt 0.295455 0.354286
vt 0.340910 0.354286
vt 0.272728 0.314921
vt 0.318182 0.314921
vt 0.386364 0.275556
vt 0.409091 0.236191
vt 0.431819 0.275556
vt 0.454546 0.236191
vt 0.477273 0.275556
vt 0.500000 0.236191
vt 0.522728 0.275556
vt 0.568182 0.275556
vt 0.590909 0.236191
vt 0.613637 0.275556
vt 0.636364 0.236191
vt 0.659091 0.275556
vt 0.681818 0.236191
vt 0.704546 0.275556
vt 0.750000 0.275556
vt 0.772727 0.236191
vt 0.795455 0.275556
vt 0.818182 0.236191
vt 0.840909 0.275556
vt 0.863636 0.236191
vt 0.886364 0.275556
vt 0.022727 0.275556
vt 0.045455 0.236191
vt 0.068182 0.275556
vt 0.090910 0.236191
vt 0.113637 0.275556
vt 0.136364 0.236191
vt 0.159092 0.275556
vt 0.204546 0.275556
vt 0.227273 0.236191
vt 0.250001 0.275556
vt 0.272728 0.236191
vt 0.295455 0.275556
vt 0.318182 0.236191
vt 0.340910 0.275556
vt 0.545455 0.236191
vt 0.522728 0.196826
vt 0.568182 0.196826
vt 0.545455 0.157461
vt 0.590909 0.157461
vt 0.727273 0.236191
vt 0.704546 0.196826
vt 0.750000 0.196826
vt 0.727273 0.157461
vt 0.772727 0.157461
vt 0.931818 0.275556
vt 0.909091 0.236191
vt 0.886364 0.196826
vt 0.954545 0.236191
vt 0.931818 0.196826
vt 0.977273 0.196826
vt 0.909091 0.157461
vt 0.954545 0.157461
vt 1.000000 0.157461
vt 0.181819 0.236191
vt 0.159092 0.196826
vt 0.204546 0.196826
vt 0.181819 0.157461
vt 0.227274 0.157461
vt 0.363637 0.236191
vt 0.340910 0.196826
vt 0.386364 0.196826
vt 0.363637 0.157461
vt 0.409092 0.157461
vt 0.477273 0.118096
vt 0.500000 0.078731
vt 0.522728 0.118096
vt 0.545455 0.078731
vt 0.568182 0.118096
vt 0.590909 0.078731
vt 0.613637 0.118096
vt 0.659091 0.118096
vt 0.681818 0.078731
vt 0.704546 0.118096
vt 0.727273 0.078731
vt 0.750000 0.118096
vt 0.772727 0.078731
vt 0.795455 0.118096
vt 0.840909 0.118096
vt 0.863636 0.078731
vt 0.886364 0.118096
vt 0.909091 0.078731
vt 0.931818 0.118096
vt 0.954545 0.078731
vt 0.977273 0.118096
vt 0.431819 0.118096
vt 0.386364 0.118096
vt 0.340910 0.118096
vt 0.409091 0.078731
vt 0.363637 0.078730
vt 0.386364 0.039365
vt 0.318182 0.078731
vt 0.340910 0.039365
vt 0.363637 0.000000
vt 0.113637 0.118096
vt 0.136365 0.078731
vt 0.159092 0.118096
vt 0.181819 0.078731
vt 0.204546 0.118096
vt 0.227273 0.078731
vt 0.250001 0.118096
s 0
f 1/1/1 16/2/1 15/3/1
f 2/4/2 18/5/2 24/6/2
f 1/7/3 15/8/3 30/9/3
f 1/10/4 30/11/4 36/12/4
f 1/13/5 36/14/5 25/15/5
f 2/4/6 24/6/6 45/16/6
f 3/17/7 21/18/7 51/19/7
f 4/20/8 33/21/8 57/22/8
f 5/23/9 39/24/9 63/25/9
f 6/26/10 42/27/10 69/28/10
f 2/4/11 45/16/11 52/29/11
f 3/17/12 51/19/12 58/30/12
f 4/20/13 57/22/13 64/31/13
f 5/23/14 63/25/14 70/32/14
f 6/26/15 69/28/15 46/33/15
f 7/34/16 75/35/16 90/36/16
f 8/37/17 78/38/17 96/39/17
f 9/40/18 81/41/18 99/42/18
f 10/43/19 84/44/19 102/45/19
f 11/46/20 87/47/20 91/48/20
f 93/49/21 100/50/21 12/51/21
f 92/52/22 103/53/22 93/49/22
f 91/48/23 104/54/23 92/52/23
f 93/49/24 103/53/24 100/50/24
f 103/53/25 101/55/25 100/50/25
f 92/52/26 104/54/26 103/53/26
f 104/54/27 105/56/27 103/53/27
f 103/53/28 105/56/28 101/55/28
f 105/56/29 102/57/29 101/55/29
f 91/48/30 87/47/30 104/54/30
f 87/47/31 86/58/31 104/54/31
f 104/54/32 86/58/32 105/56/32
f 86/58/33 85/59/33 105/56/33
f 105/56/34 85/59/34 102/57/34
f 85/59/35 10/43/35 102/57/35
f 100/60/36 97/61/36 12/62/36
f 101/63/37 106/64/37 100/60/37
f 102/45/38 107/65/38 101/63/38
f 100/60/39 106/64/39 97/61/39
f 106/64/40 98/66/40 97/61/40
f 101/63/41 107/65/41 106/64/41
f 107/65/42 108/67/42 106/64/42
f 106/64/43 108/67/43 98/66/43
f 108/67/44 99/68/44 98/66/44
f 102/45/45 84/44/45 107/65/45
f 84/44/46 83/69/46 107/65/46
f 107/65/47 83/69/47 108/67/47
f 83/69/48 82/70/48 108/67/48
f 108/67/49 82/70/49 99/68/49
f 82/70/50 9/40/50 99/68/50
f 97/71/51 94/72/51 12/73/51
f 98/74/52 109/75/52 97/71/52
f 99/42/53 110/76/53 98/74/53
f 97/71/54 109/75/54 94/72/54
f 109/75/55 95/77/55 94/72/55
f 98/74/56 110/76/56 109/75/56
f 110/76/57 111/78/57 109/75/57
f 109/75/58 111/78/58 95/77/58
f 111/78/59 96/79/59 95/77/59
f 99/42/60 81/41/60 110/76/60
f 81/41/61 80/80/61 110/76/61
f 110/76/62 80/80/62 111/78/62
f 80/80/63 79/81/63 111/78/63
f 111/78/64 79/81/64 96/79/64
f 79/81/65 8/82/65 96/79/65
f 94/83/66 88/84/66 12/85/66
f 95/86/67 112/87/67 94/83/67
f 96/39/68 113/88/68 95/86/68
f 94/83/69 112/87/69 88/84/69
f 112/87/70 89/89/70 88/84/70
f 95/86/71 113/88/71 112/87/71
f 113/88/72 114/90/72 112/87/72
f 112/87/73 114/90/73 89/89/73
f 114/90/74 90/91/74 89/89/74
f 96/39/75 78/38/75 113/88/75
f 78/38/76 77/92/76 113/88/76
f 113/88/77 77/92/77 114/90/77
f 77/92/78 76/93/78 114/90/78
f 114/90/79 76/93/79 90/91/79
f 76/93/80 7/34/80 90/91/80
f 88/94/81 93/95/81 12/96/81
f 89/97/82 115/98/82 88/94/82
f 90/36/83 116/99/83 89/97/83
f 88/94/84 115/98/84 93/95/84
f 115/98/85 92/100/85 93/95/85
f 89/97/86 116/99/86 115/98/86
f 116/99/87 117/101/87 115/98/87
f 115/98/88 117/101/88 92/100/88
f 117/101/89 91/102/89 92/100/89
f 90/36/90 75/35/90 116/99/90
f 75/35/91 74/103/91 116/99/91
f 116/99/92 74/103/92 117/101/92
f 74/103/93 73/104/93 117/101/93
f 117/101/94 73/104/94 91/102/94
f 73/104/95 11/46/95 91/102/95
f 48/105/96 87/47/96 11/46/96
f 47/106/97 118/107/97 48/105/97
f 46/33/98 119/108/98 47/106/98
f 48/105/99 118/107/99 87/47/99
f 118/107/100 86/58/100 87/47/100
f 47/106/101 119/108/101 118/107/101
f 119/108/102 120/109/102 118/107/102
f 118/107/103 120/109/103 86/58/103
f 120/109/104 85/59/104 86/58/104
f 46/33/105 69/28/105 119/108/105
f 69/28/106 68/110/106 119/108/106
f 119/108/107 68/110/107 120/109/107
f 68/110/108 67/111/108 120/109/108
f 120/109/109 67/111/109 85/59/109
f 67/111/110 10/43/110 85/59/110
f 72/112/111 84/44/111 10/43/111
f 71/113/112 121/114/112 72/112/112
f 70/32/113 122/115/113 71/113/113
f 72/112/114 121/114/114 84/44/114
f 121/114/115 83/69/115 84/44/115
f 71/113/116 122/115/116 121/114/116
f 122/115/117 123/116/117 121/114/117
f 121/114/118 123/116/118 83/69/118
f 123/116/119 82/70/119 83/69/119
f 70/32/120 63/25/120 122/115/120
f 63/25/121 62/117/121 122/115/121
f 122/115/122 62/117/122 123/116/122
f 62/117/123 61/118/123 123/116/123
f 123/116/124 61/118/124 82/70/124
f 61/118/125 9/40/125 82/70/125
f 66/119/126 81/41/126 9/40/126
f 65/120/127 124/121/127 66/119/127
f 64/31/128 125/122/128 65/120/128
f 66/119/129 124/121/129 81/41/129
f 124/121/130 80/80/130 81/41/130
f 65/120/131 125/122/131 124/121/131
f 125/122/132 126/123/132 124/121/132
f 124/121/133 126/123/133 80/80/133
f 126/123/134 79/81/134 80/80/134
f 64/31/135 57/22/135 125/122/135
f 57/22/136 56/124/136 125/122/136
f 125/122/137 56/124/137 126/123/137
f 56/124/138 55/125/138 126/123/138
f 126/123/139 55/125/139 79/81/139
f 55/125/140 8/82/140 79/81/140
f 60/126/141 78/38/141 8/37/141
f 59/127/142 127/128/142 60/126/142
f 58/30/143 128/129/143 59/127/143
f 60/126/144 127/128/144 78/38/144
f 127/128/145 77/92/145 78/38/145
f 59/127/146 128/129/146 127/128/146
f 128/129/147 129/130/147 127/128/147
f 127/128/148 129/130/148 77/92/148
f 129/130/149 76/93/149 77/92/149
f 58/30/150 51/19/150 128/129/150
f 51/19/151 50/131/151 128/129/151
f 128/129/152 50/131/152 129/130/152
f 50/131/153 49/132/153 129/130/153
f 129/130/154 49/132/154 76/93/154
f 49/132/155 7/34/155 76/93/155
f 54/133/156 75/35/156 7/34/156
f 53/134/157 130/135/157 54/133/157
f 52/29/158 131/136/158 53/134/158
f 54/133/159 130/135/159 75/35/159
f 130/135/160 74/103/160 75/35/160
f 53/134/161 131/136/161 130/135/161
f 131/136/162 132/137/162 130/135/162
f 130/135/163 132/137/163 74/103/163
f 132/137/164 73/104/164 74/103/164
f 52/29/165 45/16/165 131/136/165
f 45/16/166 44/138/166 131/136/166
f 131/136/167 44/138/167 132/137/167
f 44/138/168 43/139/168 132/137/168
f 132/137/169 43/139/169 73/104/169
f 43/139/170 11/46/170 73/104/170
f 67/111/171 72/112/171 10/43/171
f 68/110/172 133/140/172 67/111/172
f 69/28/173 134/141/173 68/110/173
f 67/111/174 133/140/174 72/112/174
f 133/140/175 71/113/175 72/112/175
f 68/110/176 134/141/176 133/140/176
f 134/141/177 135/142/177 133/140/177
f 133/140/178 135/142/178 71/113/178
f 135/142/179 70/32/179 71/113/179
f 69/28/180 42/27/180 134/141/180
f 42/27/181 41/143/181 134/141/181
f 134/141/182 41/143/182 135/142/182
f 41/143/183 40/144/183 135/142/183
f 135/142/184 40/144/184 70/32/184
f 40/144/185 5/23/185 70/32/185
f 61/118/186 66/119/186 9/40/186
f 62/117/187 136/145/187 61/118/187
f 63/25/188 137/146/188 62/117/188
f 61/118/189 136/145/189 66/119/189
f 136/145/190 65/120/190 66/119/190
f 62/117/191 137/146/191 136/145/191
f 137/146/192 138/147/192 136/145/192
f 136/145/193 138/147/193 65/120/193
f 138/147/194 64/31/194 65/120/194
f 63/25/195 39/24/195 137/146/195
f 39/24/196 38/148/196 137/146/196
f 137/146/197 38/148/197 138/147/197
f 38/148/198 37/149/198 138/147/198
f 138/147/199 37/149/199 64/31/199
f 37/149/200 4/20/200 64/31/200
f 55/125/201 60/150/201 8/82/201
f 56/124/202 139/151/202 55/125/202
f 57/22/203 140/152/203 56/124/203
f 55/125/204 139/151/204 60/150/204
f 139/151/205 59/153/205 60/150/205
f 56/124/206 140/152/206 139/151/206
f 140/152/207 141/154/207 139/151/207
f 139/151/208 141/154/208 59/153/208
f 141/154/209 58/155/209 59/153/209
f 57/22/210 33/21/210 140/152/210
f 33/21/211 32/156/211 140/152/211
f 140/152/212 32/156/212 141/154/212
f 32/156/213 31/157/213 141/154/213
f 141/154/214 31/157/214 58/155/214
f 31/157/215 3/158/215 58/155/215
f 49/132/216 54/133/216 7/34/216
f 50/131/217 142/159/217 49/132/217
f 51/19/218 143/160/218 50/131/218
f 49/132/219 142/159/219 54/133/219
f 142/159/220 53/134/220 54/133/220
f 50/131/221 143/160/221 142/159/221
f 143/160/222 144/161/222 142/159/222
f 142/159/223 144/161/223 53/134/223
f 144/161/224 52/29/224 53/134/224
f 51/19/225 21/18/225 143/160/225
f 21/18/226 20/162/226 143/160/226
f 143/160/227 20/162/227 144/161/227
f 20/162/228 19/163/228 144/161/228
f 144/161/229 19/163/229 52/29/229
f 19/163/230 2/4/230 52/29/230
f 43/139/231 48/105/231 11/46/231
f 44/138/232 145/164/232 43/139/232
f 45/16/233 146/165/233 44/138/233
f 43/139/234 145/164/234 48/105/234
f 145/164/235 47/106/235 48/105/235
f 44/138/236 146/165/236 145/164/236
f 146/165/237 147/166/237 145/164/237
f 145/164/238 147/166/238 47/106/238
f 147/166/239 46/33/239 47/106/239
f 45/16/240 24/6/240 146/165/240
f 24/6/241 23/167/241 146/165/241
f 146/165/242 23/167/242 147/166/242
f 23/167/243 22/168/243 147/166/243
f 147/166/244 22/168/244 46/33/244
f 22/168/245 6/26/245 46/33/245
f 27/169/246 42/27/246 6/26/246
f 26/170/247 148/171/247 27/169/247
f 25/15/248 149/172/248 26/170/248
f 27/169/249 148/171/249 42/27/249
f 148/171/250 41/143/250 42/27/250
f 26/170/251 149/172/251 148/171/251
f 149/172/252 150/173/252 148/171/252
f 148/171/253 150/173/253 41/143/253
f 150/173/254 40/144/254 41/143/254
f 25/15/255 36/14/255 149/172/255
f 36/14/256 35/174/256 149/172/256
f 149/172/257 35/174/257 150/173/257
f 35/174/258 34/175/258 150/173/258
f 150/173/259 34/175/259 40/144/259
f 34/175/260 5/23/260 40/144/260
f 34/176/261 39/24/261 5/23/261
f 35/177/262 151/178/262 34/176/262
f 36/12/263 152/179/263 35/177/263
f 34/176/264 151/178/264 39/24/264
f 151/178/265 38/148/265 39/24/265
f 35/177/266 152/179/266 151/178/266
f 152/179/267 153/180/267 151/178/267
f 151/178/268 153/180/268 38/148/268
f 153/180/269 37/149/269 38/148/269
f 36/12/270 30/11/270 152/179/270
f 30/11/271 29/181/271 152/179/271
f 152/179/272 29/181/272 153/180/272
f 29/181/273 28/182/273 153/180/273
f 153/180/274 28/182/274 37/149/274
f 28/182/275 4/20/275 37/149/275
f 28/183/276 33/21/276 4/20/276
f 29/184/277 154/185/277 28/183/277
f 30/9/278 155/186/278 29/184/278
f 28/183/279 154/185/279 33/21/279
f 154/185/280 32/156/280 33/21/280
f 29/184/281 155/186/281 154/185/281
f 155/186/282 156/187/282 154/185/282
f 154/185/283 156/187/283 32/156/283
f 156/187/284 31/157/284 32/156/284
f 30/9/285 15/8/285 155/186/285
f 15/8/286 14/188/286 155/186/286
f 155/186/287 14/188/287 156/187/287
f 14/188/288 13/189/288 156/187/288
f 156/187/289 13/189/289 31/157/289
f 13/189/290 3/158/290 31/157/290
f 22/168/291 27/190/291 6/26/291
f 23/167/292 157/191/292 22/168/292
f 24/6/293 158/192/293 23/167/293
f 22/168/294 157/191/294 27/190/294
f 157/191/295 26/193/295 27/190/295
f 23/167/296 158/192/296 157/191/296
f 158/192/297 159/194/297 157/191/297
f 157/191/298 159/194/298 26/193/298
f 159/194/299 25/195/299 26/193/299
f 24/6/300 18/5/300 158/192/300
f 18/5/301 17/196/301 158/192/301
f 158/192/302 17/196/302 159/194/302
f 17/196/303 16/197/303 159/194/303
f 159/194/304 16/197/304 25/195/304
f 16/197/305 1/198/305 25/195/305
f 13/199/306 21/18/306 3/17/306
f 14/200/307 160/201/307 13/199/307
f 15/3/308 161/202/308 14/200/308
f 13/199/309 160/201/309 21/18/309
f 160/201/310 20/162/310 21/18/310
f 14/200/311 161/202/311 160/201/311
f 161/202/312 162/203/312 160/201/312
f 160/201/313 162/203/313 20/162/313
f 162/203/314 19/163/314 20/162/314
f 15/3/315 16/2/315 161/202/315
f 16/2/316 17/204/316 161/202/316
f 161/202/317 17/204/317 162/203/317
f 17/204/318 18/205/318 162/203/318
f 162/203/319 18/205/319 19/163/319
f 18/205/320 2/4/320 19/163/320
